HIERARCHY
ROOT Hips
{
	OFFSET 0.00000 0.00000 0.00000
	CHANNELS 6 Xposition Yposition Zposition Zrotation Yrotation Xrotation 
	JOINT LHipJoint
	{
		OFFSET 0 0 0
		CHANNELS 3 Zrotation Yrotation Xrotation
		JOINT LeftUpLeg
		{
			OFFSET 1.58161 -1.81893 0.78828
			CHANNELS 3 Zrotation Yrotation Xrotation
			JOINT LeftLeg
			{
				OFFSET 2.53374 -6.96141 0.00000
				CHANNELS 3 Zrotation Yrotation Xrotation
				JOINT LeftFoot
				{
					OFFSET 2.63509 -7.23986 0.00000
					CHANNELS 3 Zrotation Yrotation Xrotation
					JOINT LeftToeBase
					{
						OFFSET 0.14115 -0.38781 2.05350
						CHANNELS 3 Zrotation Yrotation Xrotation
						End Site
						{
							OFFSET 0.00000 -0.00000 1.05543
						}
					}
				}
			}
		}
	}
	JOINT RHipJoint
	{
		OFFSET 0 0 0
		CHANNELS 3 Zrotation Yrotation Xrotation
		JOINT RightUpLeg
		{
			OFFSET -1.11138 -1.81893 0.78828
			CHANNELS 3 Zrotation Yrotation Xrotation
			JOINT RightLeg
			{
				OFFSET -2.58392 -7.09926 0.00000
				CHANNELS 3 Zrotation Yrotation Xrotation
				JOINT RightFoot
				{
					OFFSET -2.66423 -7.31992 0.00000
					CHANNELS 3 Zrotation Yrotation Xrotation
					JOINT RightToeBase
					{
						OFFSET -0.18831 -0.51739 2.12114
						CHANNELS 3 Zrotation Yrotation Xrotation
						End Site
						{
							OFFSET -0.00000 -0.00000 1.09845
						}
					}
				}
			}
		}
	}
	JOINT LowerBack
	{
		OFFSET 0 0 0
		CHANNELS 3 Zrotation Yrotation Xrotation
		JOINT Spine
		{
			OFFSET -0.01511 1.97958 -0.08829
			CHANNELS 3 Zrotation Yrotation Xrotation
			JOINT Spine1
			{
				OFFSET 0.08344 1.97334 -0.04330
				CHANNELS 3 Zrotation Yrotation Xrotation
				JOINT Neck
				{
					OFFSET 0 0 0
					CHANNELS 3 Zrotation Yrotation Xrotation
					JOINT Neck1
					{
						OFFSET 0.00559 1.76246 0.31246
						CHANNELS 3 Zrotation Yrotation Xrotation
						JOINT Head
						{
							OFFSET -0.07011 1.80354 -0.30524
							CHANNELS 3 Zrotation Yrotation Xrotation
							End Site
							{
								OFFSET -0.02385 1.83547 -0.13906
							}
						}
					}
				}
				JOINT LeftShoulder
				{
					OFFSET 0 0 0
					CHANNELS 3 Zrotation Yrotation Xrotation
					JOINT LeftArm
					{
						OFFSET 3.20667 1.30156 -0.60240
						CHANNELS 3 Zrotation Yrotation Xrotation
						JOINT LeftForeArm
						{
							OFFSET 4.95663 -0.00000 0.00000
							CHANNELS 3 Zrotation Yrotation Xrotation
							JOINT LeftHand
							{
								OFFSET 3.38177 -0.00000 0.00000
								CHANNELS 3 Zrotation Yrotation Xrotation
								JOINT LeftFingerBase
								{
									OFFSET 0 0 0
									CHANNELS 3 Zrotation Yrotation Xrotation
									JOINT LeftHandIndex1
									{
										OFFSET 0.66291 -0.00000 0.00000
										CHANNELS 3 Zrotation Yrotation Xrotation
										End Site
										{
											OFFSET 0.53445 -0.00000 0.00000
										}
									}
								}
								JOINT LThumb
								{
									OFFSET 0 0 0
									CHANNELS 3 Zrotation Yrotation Xrotation
									End Site
									{
										OFFSET 0.54261 -0.00000 0.54261
									}
								}
							}
						}
					}
				}
				JOINT RightShoulder
				{
					OFFSET 0 0 0
					CHANNELS 3 Zrotation Yrotation Xrotation
					JOINT RightArm
					{
						OFFSET -3.06877 1.34672 -0.60964
						CHANNELS 3 Zrotation Yrotation Xrotation
						JOINT RightForeArm
						{
							OFFSET -5.08365 -0.00000 0.00000
							CHANNELS 3 Zrotation Yrotation Xrotation
							JOINT RightHand
							{
								OFFSET -3.35984 -0.00000 0.00000
								CHANNELS 3 Zrotation Yrotation Xrotation
								JOINT RightFingerBase
								{
									OFFSET 0 0 0
									CHANNELS 3 Zrotation Yrotation Xrotation
									JOINT RightHandIndex1
									{
										OFFSET -0.82076 -0.00000 0.00000
										CHANNELS 3 Zrotation Yrotation Xrotation
										End Site
										{
											OFFSET -0.66172 -0.00000 0.00000
										}
									}
								}
								JOINT RThumb
								{
									OFFSET 0 0 0
									CHANNELS 3 Zrotation Yrotation Xrotation
									End Site
									{
										OFFSET -0.67182 -0.00000 0.67182
									}
								}
							}
						}
					}
				}
			}
		}
	}
}
MOTION
Frames: 6
Frame Time: .0083333
-6.8519 18.1514 -1.1960 -182.2720 39.0037 -176.7150 0.0000 0.0000 0.0000 -21.3156 -8.7715 -10.1017 0.1128 2.1653 5.9628 -2.3524 -28.8236 25.0701 0.7185 5.4166 15.1007 0.0000 0.0000 0.0000 4.3602 -1.9171 -3.5877 -3.8318 -11.9332 35.4960 1.3946 -20.8620 -2.9507 -0.0445 -1.3615 3.7440 4.2181 0.8607 -6.4731 14.8105 1.8739 1.4504 14.2245 1.5195 4.8157 -5.0531 -18.1746 -0.9135 -6.6088 -21.5083 24.7606 -2.7072 -10.4563 7.6604 0.0000 -0.0000 0.0000 -103.4062 -34.4402 76.1257 12.2051 -20.1115 -2.1723 -0.0000 0.0000 -44.2466 3.9527 65.3725 3.5942 -7.1250 0.0000 -0.0000 163.1734 6.2544 15.5983 0.0000 -0.0000 0.0000 102.2544 36.8190 60.1765 -11.9967 19.7997 -2.1012 0.0000 -0.0000 -44.1045 -13.6795 -15.8285 3.7982 7.1250 -0.0000 -0.0000 13.1407 -45.8230 -0.2716
-6.8373 18.1490 -1.2439 -181.4550 37.4296 -176.3640 0.0000 0.0000 0.0000 -20.7766 -9.4912 -10.4370 0.1670 2.6328 7.2580 -2.3604 -29.1446 25.8892 0.9631 6.2485 17.5072 0.0000 0.0000 0.0000 5.1415 -2.3213 -2.7410 -3.7573 -11.8302 35.1339 1.4251 -21.1814 -2.5277 -0.1012 -2.0519 5.6491 4.6991 1.1302 -6.3441 15.2433 2.4672 0.9067 14.4652 1.9337 4.0189 -5.2868 -18.8849 -0.4236 -6.4797 -22.4521 24.7565 -2.6572 -10.8736 7.6192 -0.0000 0.0000 0.0000 -103.4558 -35.0408 72.7298 12.6717 -20.8043 -2.3354 -0.0000 0.0000 -46.1290 7.4282 64.3229 6.7017 -7.1250 0.0000 -0.0000 164.2240 5.2816 14.8436 -0.0000 0.0000 0.0000 103.7249 38.7697 65.0302 -11.7387 19.4117 -2.0146 0.0000 -0.0000 -40.4215 -10.5953 -16.7180 3.0801 7.1250 -0.0000 -0.0000 16.2316 -46.3099 -0.5387
-6.8262 18.1413 -1.2866 -180.8590 35.9533 -176.2510 0.0000 0.0000 0.0000 -20.4277 -10.0622 -10.6098 0.2215 3.0293 8.3603 -2.4083 -29.6109 26.6951 1.1382 6.7752 19.0510 0.0000 0.0000 0.0000 5.7353 -2.6500 -1.8556 -3.6890 -11.7347 34.7997 1.4540 -21.4745 -2.1858 -0.1669 -2.6320 7.2559 5.3314 1.5171 -6.1207 15.3957 3.1653 0.4939 14.2621 2.3771 3.3098 -5.4176 -19.6068 -0.1943 -6.0710 -23.4775 24.8217 -2.5786 -11.3044 7.6712 0.0000 0.0000 0.0000 -103.0896 -35.8667 70.1029 13.4769 -21.9820 -2.6291 -0.0000 0.0000 -48.6179 9.3548 63.5530 8.3906 -7.1250 0.0000 -0.0000 164.8567 4.5931 14.4048 0.0000 0.0000 0.0000 105.5546 40.9481 69.8596 -11.6486 19.2756 -1.9848 0.0000 -0.0000 -36.3520 -7.7207 -15.6687 2.0970 7.1250 -0.0000 -0.0000 18.4391 -44.9520 0.0226
-6.8119 18.1323 -1.3358 -180.5540 34.6219 -176.3120 0.0000 0.0000 0.0000 -20.3603 -10.4627 -10.6741 0.2735 3.3642 9.2943 -2.4372 -30.0206 27.5185 1.2650 7.1292 20.0988 0.0000 0.0000 0.0000 6.0072 -3.0413 -1.0424 -3.6292 -11.6499 34.5045 1.4105 -21.5306 -0.8977 -0.1112 -2.1505 5.9218 5.8759 1.9746 -5.9931 15.3500 3.8905 0.1924 13.8805 2.7993 2.7929 -5.3750 -20.2892 -0.1576 -5.5686 -24.4969 24.8004 -2.5083 -11.7215 7.7205 -0.0000 0.0000 0.0000 -102.7225 -36.9177 67.3999 14.3231 -23.1948 -2.9542 -0.0000 0.0000 -50.1669 40.9171 59.4479 36.7382 -7.1250 0.0000 -0.0000 175.1183 6.0139 4.3596 -0.0000 0.0000 0.0000 107.4480 43.1321 74.6605 -11.9038 19.6602 -2.0698 0.0000 -0.0000 -32.3914 -5.5840 -14.1761 1.3716 7.1250 -0.0000 -0.0000 19.7923 -43.2999 0.8668
-6.7959 18.1276 -1.3850 -180.1950 33.3690 -176.2980 0.0000 0.0000 0.0000 -20.2081 -10.7720 -10.7455 0.3213 3.6432 10.0750 -2.5262 -30.5701 28.1706 1.3097 7.2492 20.4558 0.0000 0.0000 0.0000 6.3560 -3.3838 -0.3228 -3.5748 -11.5720 34.2343 1.3472 -21.5686 0.5347 -0.0564 -1.5321 4.2141 6.4988 2.4684 -5.8525 15.2496 4.6554 -0.1014 13.3844 3.2325 2.2951 -5.1091 -20.9520 -0.1249 -5.1303 -25.5093 24.6036 -2.4646 -12.1332 7.6757 0.0000 -0.0000 0.0000 -102.2157 -38.0052 65.0328 15.3463 -24.6263 -3.3689 -0.0000 0.0000 -51.3451 20.2813 59.5762 17.6748 -7.1250 0.0000 -0.0000 168.8410 1.6042 11.0558 0.0000 -0.0000 0.0000 109.4406 45.2437 78.6675 -12.3537 20.3330 -2.2237 0.0000 -0.0000 -27.9725 -3.6510 -12.7576 0.8073 7.1250 -0.0000 -0.0000 20.9696 -41.7734 1.7550
-6.7851 18.1253 -1.4283 -179.6230 32.2656 -176.1480 0.0000 0.0000 0.0000 -19.8274 -10.9448 -10.8976 0.3665 3.8887 10.7639 -2.7484 -31.4111 28.4793 1.2550 7.1020 20.0179 0.0000 0.0000 0.0000 6.9394 -3.5134 0.3149 -3.5248 -11.4996 33.9841 1.3370 -21.7893 1.2622 -0.0689 -1.6931 4.6583 7.2441 2.9656 -5.6496 15.2409 5.4435 -0.3086 12.9315 3.6802 1.8689 -4.8826 -21.5587 -0.1998 -4.5982 -26.4723 24.2554 -2.3925 -12.5301 7.6195 0.0000 0.0000 0.0000 -101.6776 -39.2369 62.8649 16.6151 -26.3476 -3.9150 -0.0000 0.0000 -52.9049 16.3877 58.1208 14.0214 -7.1250 0.0000 -0.0000 12.1959 -2.8485 -168.1498 0.0000 0.0000 0.0000 111.5020 47.3922 82.0172 -12.8439 21.0581 -2.3969 0.0000 -0.0000 -22.7670 -1.6704 -10.9234 0.3166 7.1250 -0.0000 -0.0000 22.0300 -39.8862 2.9433
